<?xml version="1.0" encoding="UTF-8"?>
<svg id="Layer_1" data-name="Layer 1" xmlns="http://www.w3.org/2000/svg" viewBox="0 0 1224.87 591.61">
  <defs>
    <style>
      .cls-1 {
        fill: #9f633a;
      }

      .cls-2 {
        fill: #ed2a24;
      }
    </style>
  </defs>
  <path class="cls-2" d="m314.07,129v130h-32.5v32.5h-32.5v32.5H119.07v-32.5h-32.5v-162.5h32.5v-32.5h162.5v32.5h32.5Zm-65,0h-97.5v162.5h65v-32.5h-32.5v-32.5h65v-97.5Zm32.5,195v-32.5h32.5v32.5h-32.5Z"/>
  <path class="cls-2" d="m916.57,324v-162.5h32.5v-32.5h32.5v-32.5h97.5v32.5h32.5v32.5h32.5v162.5h-65v-65h-97.5v65h-65Zm65-97.5h97.5v-65h-32.5v-32.5h-32.5v32.5h-32.5v65Z"/>
  <path class="cls-1" d="m685.54,417.46h46.81v46.81h46.81v46.81h-280.86v-46.81h-46.81v-93.62h46.81v-46.81h-46.81v-93.62h46.81v-46.81h140.43v46.81h46.81v93.62h-46.81v46.81h46.81v46.81Zm-140.43-93.62h46.81v-93.62h-46.81v93.62Zm93.62,93.62h-46.81v-46.81h-46.81v93.62h93.62v-46.81Zm140.43-46.81v46.81h-46.81v-46.81h46.81Z"/>
</svg>